<svg width="172" height="203" viewBox="0 0 172 203" fill="none" xmlns="http://www.w3.org/2000/svg">
<path d="M52.9878 96.6266L48 85.5L47.4276 82.9814C46.1576 77.3933 46.1113 71.5966 47.2918 65.9888L47.4606 65.1871C48.7914 58.8658 51.9321 53.0679 56.5 48.5L58.8762 46.0158C64.5536 40.0803 71.4855 35.4883 79.1652 32.5753C81.0521 31.8595 82.9928 31.2946 84.969 30.8857L96.5 28.5C107.343 27.5143 118.265 29.1311 128.358 33.2162L129.439 33.6538C132.472 34.8814 135.372 36.4146 138.094 38.2295L141.806 40.7038C147.529 44.5191 152.321 49.5722 155.827 55.4894C157.599 58.4792 158.907 61.7202 159.708 65.1019L160.049 66.5406C161.962 74.6189 161.147 83.1033 157.73 90.6692L157.432 91.3297C156.481 93.4349 155.27 95.4126 153.827 97.2163L150.143 101.822C147.404 105.245 144.063 108.139 140.284 110.362L137.5 112L130.354 115.761C129.176 116.381 128.921 117.958 129.844 118.917L135.249 124.538C138.722 128.151 141.533 132.348 143.551 136.935C145.172 140.617 146.142 144.552 146.418 148.565L146.49 149.604C146.825 154.468 146.03 159.345 144.165 163.851L143.526 165.395C141.853 169.439 139.549 173.193 136.7 176.516C133.582 180.154 129.967 183.334 125.962 185.963L120.306 189.674C117.445 191.552 114.38 193.102 111.172 194.293C102.769 197.414 93.9553 199.29 85.01 199.861L83.9071 199.931C77.9776 200.31 72.0279 200.238 66.1094 199.716L64.2992 199.556C60.113 199.186 55.9817 198.347 51.9833 197.053L41 193.5L33.3728 189.887C25.9169 186.355 19.4972 180.962 14.733 174.226L10.7449 168.588C8.59708 165.551 6.97807 162.173 5.9563 158.597L4.18144 152.385C3.07054 148.497 2.70665 144.433 3.10901 140.41L4 131.5L4.59409 125.856C4.86261 123.305 4.6817 120.727 4.05957 118.238C3.03041 114.122 2.84108 109.84 3.50288 105.648L4 102.5C4.54305 98.4271 8.39641 95.6469 12.4327 96.4158L15.5 97L16.8865 97.416C22.5103 99.1031 27.5313 102.37 31.3524 106.828C31.4408 106.931 31.5847 106.967 31.7112 106.917L36.1777 105.17C40.7187 103.393 45.3938 101.98 50.1589 100.944L50.8876 100.785C52.7494 100.381 53.7672 98.3653 52.9878 96.6266Z" fill="#F6DB4B" stroke="black" stroke-width="5"/>
<path d="M169.501 95.8438C169.501 97.3617 168.269 99.1246 163.777 100.55C159.497 101.908 153.336 102.551 146.152 102.551C142.421 102.551 139.536 102.447 137.287 102.146C135.023 101.842 133.634 101.366 132.745 100.781C131.225 99.7803 130.701 98.0115 131.51 95.294C132.321 92.5692 134.342 89.6593 136.613 87.7945C139.461 85.4562 142.32 83.9173 144.786 83.1114C147.326 82.281 149.15 82.3196 150.123 82.6846C156.123 84.9345 161.132 87.069 164.62 89.3801C168.161 91.7252 169.501 93.8217 169.501 95.8438Z" fill="#ED8000" stroke="black" stroke-width="5"/>
<path d="M32.8276 131V131C32.8276 142.815 38.672 153.979 48.438 160.628V160.628C53.607 164.148 59.6096 166.248 65.8452 166.718L67.9774 166.879C77.6057 167.606 87.2036 165.123 95.2722 159.82L95.7586 159.5" stroke="black" stroke-width="5" stroke-linecap="round"/>
<circle cx="105.5" cy="80.5" r="8.5" fill="black"/>
<mask id="path-5-inside-1_6_19" fill="white">
<path d="M120.44 32.2434C118.645 23.6919 113.728 16.1614 106.77 11.3084C99.8121 6.45535 91.3829 4.67742 83.3371 6.3657C75.2912 8.05399 68.2876 13.0702 63.8671 20.3108C59.4467 27.5514 57.9713 36.4233 59.7657 44.9747L90.1027 38.6091L120.44 32.2434Z"/>
</mask>
<path d="M120.44 32.2434C118.645 23.6919 113.728 16.1614 106.77 11.3084C99.8121 6.45535 91.3829 4.67742 83.3371 6.3657C75.2912 8.05399 68.2876 13.0702 63.8671 20.3108C59.4467 27.5514 57.9713 36.4233 59.7657 44.9747L90.1027 38.6091L120.44 32.2434Z" fill="#1F4BE8" stroke="black" stroke-width="10" mask="url(#path-5-inside-1_6_19)"/>
<path d="M135.669 23.575L118.463 28.6767C117.43 28.983 117.545 30.4814 118.613 30.6264L138.251 33.2931L149.332 33.6788C153.333 33.818 156.56 30.4386 156.237 26.449C155.903 22.3268 151.948 19.4908 147.936 20.4972L135.669 23.575Z" fill="#1F4BE8" stroke="black" stroke-width="5"/>
</svg>
