<svg width="186" height="157" viewBox="0 0 186 157" fill="none" xmlns="http://www.w3.org/2000/svg">
<path d="M41.7921 74.2188L38.0307 65.8281L37.59 63.889C36.6122 59.5866 36.5766 55.1237 37.4855 50.8063L37.6154 50.1891C38.64 45.3222 41.0581 40.8584 44.5749 37.3415L46.4044 35.4289C50.7755 30.8591 56.1123 27.3237 62.025 25.0809C63.4777 24.5299 64.9719 24.095 66.4934 23.7802L75.3712 21.9434C83.7194 21.1844 92.1283 22.4293 99.8986 25.5744L100.731 25.9113C103.066 26.8565 105.299 28.0368 107.395 29.4342L110.252 31.3392C114.658 34.2766 118.348 38.167 121.047 42.7227C122.411 45.0246 123.419 47.5198 124.036 50.1235L124.298 51.2311C125.771 57.4506 125.143 63.9828 122.513 69.8079L122.283 70.3164C121.551 71.9372 120.618 73.4598 119.508 74.8485L117.624 77.2027C114.885 80.6261 111.544 83.5205 107.766 85.7433L106.937 86.2306L101.647 89.0149C100.634 89.5481 100.415 90.9036 101.208 91.7287L105.204 95.884C107.878 98.6655 110.042 101.896 111.596 105.428C112.844 108.263 113.59 111.293 113.804 114.383L113.859 115.182C114.117 118.927 113.504 122.682 112.069 126.151L111.577 127.34C110.288 130.454 108.515 133.344 106.322 135.902C103.921 138.703 101.138 141.151 98.0539 143.175L93.6997 146.032C91.4965 147.478 89.1373 148.671 86.6669 149.589C80.1977 151.992 73.412 153.436 66.5249 153.875L65.6758 153.93C61.1106 154.221 56.5299 154.165 51.9732 153.763L50.813 153.661C47.4349 153.363 44.1011 152.686 40.8746 151.642L32.6414 148.978L29.386 147.436C21.9301 143.904 15.5103 138.51 10.7462 131.775L10.0944 130.853C7.94661 127.817 6.32761 124.439 5.30582 120.863L4.68143 118.677C3.57055 114.789 3.20665 110.726 3.60902 106.702L4.15486 101.244L4.61225 96.8986C4.81899 94.9345 4.6797 92.9494 4.20072 91.0335C3.40836 87.864 3.2626 84.5675 3.77213 81.3405L4.15486 78.9165C4.57295 75.7807 7.53968 73.6402 10.6473 74.2322L13.0088 74.682L14.0763 75.0022C18.4061 76.3012 22.2718 78.8163 25.2136 82.2485C25.2817 82.3279 25.3925 82.3555 25.4899 82.3174L28.5733 81.1109C32.306 79.6502 36.1489 78.4887 40.0657 77.6372C41.5961 77.3045 42.4327 75.648 41.7921 74.2188Z" fill="#C3C2BC" stroke="black" stroke-width="5"/>
<path d="M131 73.7904C131 74.546 130.417 75.7792 126.995 76.8653C123.783 77.8844 119.108 78.3791 113.598 78.3791C109.476 78.3791 106.822 78.2078 105.069 77.7279C104.139 77.4734 103.77 77.0318 103.574 76.5549C103.331 75.961 103.256 75.0114 103.558 73.7348C104.171 71.1504 106.087 68.2752 108.352 66.7428C110.195 65.4957 111.957 64.7095 113.437 64.3254C114.969 63.9277 115.97 64.0162 116.454 64.1977C121.074 65.93 124.874 67.5541 127.5 69.2936C130.177 71.0671 131 72.5308 131 73.7904Z" fill="#7F7A74" stroke="black" stroke-width="5"/>
<path d="M26.3493 100.858V100.858C26.3493 109.954 30.849 118.55 38.3679 123.669V123.669C42.3475 126.379 46.969 127.996 51.7698 128.358L53.4114 128.482C60.8243 129.041 68.2138 127.13 74.4259 123.047L74.8004 122.801" stroke="black" stroke-width="5" stroke-linecap="round"/>
<ellipse cx="82.3004" cy="61.9769" rx="6.54421" ry="6.5442" fill="black"/>
<mask id="path-5-inside-1_8_19" fill="white">
<path d="M93.8027 24.8239C92.4212 18.24 88.6355 12.4422 83.2784 8.70585C77.9213 4.96949 71.4316 3.60066 65.237 4.90048C59.0424 6.2003 53.6504 10.0623 50.247 15.6369C46.8437 21.2115 45.7078 28.042 47.0893 34.6258L70.446 29.7248L93.8027 24.8239Z"/>
</mask>
<path d="M93.8027 24.8239C92.4212 18.24 88.6355 12.4422 83.2784 8.70585C77.9213 4.96949 71.4316 3.60066 65.237 4.90048C59.0424 6.2003 53.6504 10.0623 50.247 15.6369C46.8437 21.2115 45.7078 28.042 47.0893 34.6258L70.446 29.7248L93.8027 24.8239Z" fill="#58595D" stroke="black" stroke-width="10" mask="url(#path-5-inside-1_8_19)"/>
<path d="M105.528 18.1503L93.3075 21.7737C92.2746 22.08 92.3897 23.5784 93.4572 23.7233L107.515 25.6323L116.047 25.9293C119.127 26.0365 121.612 23.4346 121.363 20.363C121.106 17.1893 118.061 15.0059 114.972 15.7807L105.528 18.1503Z" fill="#58595D" stroke="black" stroke-width="5"/>
<path d="M156.917 44.3439L157.07 43.4709C157.422 41.4703 157.86 39.9035 158.383 38.7707C158.907 37.6378 159.541 36.768 160.285 36.1612C161.032 35.5423 161.904 35.0207 162.904 34.5962C163.769 34.2233 164.547 33.8536 165.236 33.4872C165.937 33.1229 166.511 32.7049 166.956 32.2332C167.414 31.7636 167.702 31.1893 167.821 30.5103C167.928 29.904 167.876 29.345 167.666 28.8331C167.456 28.3213 167.124 27.8944 166.672 27.5524C166.22 27.2105 165.69 26.9863 165.084 26.8798C164.429 26.7648 163.796 26.8099 163.185 27.015C162.587 27.2223 162.071 27.5629 161.637 28.0368C161.216 28.5128 160.944 29.1024 160.82 29.8057L151.508 28.1701C152.001 25.5069 152.988 23.4491 154.468 21.9966C155.95 20.5321 157.741 19.5843 159.842 19.1533C161.944 18.7102 164.172 18.6952 166.524 19.1083C169.119 19.564 171.368 20.3527 173.27 21.4744C175.175 22.5839 176.582 24.0058 177.49 25.7401C178.4 27.4623 178.654 29.4632 178.254 31.7427C177.996 33.2098 177.515 34.4564 176.81 35.4825C176.119 36.4985 175.25 37.3521 174.204 38.0433C173.172 38.7245 172.001 39.3063 170.691 39.7887C169.729 40.1446 168.903 40.5432 168.213 40.9845C167.525 41.4136 166.969 41.9472 166.544 42.585C166.122 43.2108 165.825 44.0087 165.655 44.9787L165.502 45.8517L156.917 44.3439ZM159.208 57.3454C157.802 57.0983 156.682 56.3954 155.848 55.2365C155.028 54.0676 154.749 52.7749 155.01 51.3584C155.241 49.9741 155.94 48.8781 157.106 48.0706C158.285 47.2652 159.578 46.9861 160.984 47.2331C162.318 47.4674 163.408 48.165 164.254 49.326C165.112 50.4892 165.426 51.7629 165.195 53.1473C165.017 54.0909 164.617 54.9081 163.996 55.599C163.389 56.2798 162.663 56.7835 161.818 57.1101C160.975 57.4245 160.106 57.503 159.208 57.3454Z" fill="#7F7A74"/>
<path d="M156.917 44.3439L151.993 43.479L151.128 48.4036L156.052 49.2685L156.917 44.3439ZM158.383 38.7707L153.845 36.6718L153.845 36.6718L158.383 38.7707ZM160.285 36.1612L163.445 40.036L163.462 40.0229L163.478 40.0096L160.285 36.1612ZM162.904 34.5962L164.858 39.1985L164.87 39.1933L164.883 39.188L162.904 34.5962ZM165.236 33.4872L162.932 29.0499L162.91 29.0609L162.889 29.0722L165.236 33.4872ZM166.956 32.2332L163.375 28.7443L163.347 28.7724L163.32 28.8009L166.956 32.2332ZM166.672 27.5524L163.657 31.5412L163.657 31.5412L166.672 27.5524ZM163.185 27.015L161.594 22.2751L161.572 22.2825L161.55 22.2901L163.185 27.015ZM161.637 28.0368L157.947 24.6632L157.919 24.6933L157.892 24.7239L161.637 28.0368ZM160.82 29.8057L159.956 34.7303L164.88 35.5952L165.745 30.6706L160.82 29.8057ZM151.508 28.1701L146.592 27.2605L145.674 32.2219L150.644 33.0948L151.508 28.1701ZM154.468 21.9966L157.97 25.5653L157.976 25.5592L157.982 25.5532L154.468 21.9966ZM159.842 19.1533L160.847 24.0513L160.86 24.0486L160.873 24.0458L159.842 19.1533ZM173.27 21.4744L170.731 25.7817L170.743 25.7884L170.754 25.795L173.27 21.4744ZM177.49 25.7401L173.06 28.0589L173.064 28.0674L173.069 28.0759L177.49 25.7401ZM176.81 35.4825L172.689 32.6505L172.682 32.6607L172.675 32.6709L176.81 35.4825ZM174.204 38.0433L176.958 42.2164L176.96 42.2153L174.204 38.0433ZM170.691 39.7887L168.963 35.0969L168.957 35.0991L170.691 39.7887ZM168.213 40.9845L170.859 45.2265L170.883 45.2117L170.907 45.1967L168.213 40.9845ZM166.544 42.585L170.688 45.3824L170.698 45.3688L170.707 45.3552L166.544 42.585ZM165.502 45.8517L164.637 50.7763L169.561 51.6412L170.426 46.7166L165.502 45.8517ZM155.848 55.2365L151.754 58.1071L151.771 58.1321L151.789 58.1568L155.848 55.2365ZM155.01 51.3584L159.927 52.2654L159.935 52.2229L159.942 52.1802L155.01 51.3584ZM157.106 48.0706L154.286 43.9421L154.273 43.9506L154.261 43.9592L157.106 48.0706ZM164.254 49.326L160.213 52.2706L160.222 52.2825L160.23 52.2944L164.254 49.326ZM165.195 53.1473L170.108 54.0753L170.118 54.0223L170.127 53.969L165.195 53.1473ZM163.996 55.599L160.278 52.2554L160.271 52.2634L160.264 52.2714L163.996 55.599ZM161.818 57.1101L163.566 61.7945L163.594 61.7843L163.621 61.7737L161.818 57.1101ZM161.842 45.2089L161.995 44.3359L152.146 42.606L151.993 43.479L161.842 45.2089ZM161.995 44.3359C162.312 42.5309 162.657 41.4423 162.922 40.8695L153.845 36.6718C153.062 38.3648 152.532 40.4097 152.146 42.606L161.995 44.3359ZM162.922 40.8695C163.219 40.2266 163.439 40.0415 163.445 40.036L157.125 32.2864C155.644 33.4944 154.596 35.049 153.845 36.6718L162.922 40.8695ZM163.478 40.0096C163.808 39.7355 164.253 39.4556 164.858 39.1985L160.95 29.994C159.556 30.5857 158.255 31.3491 157.093 32.3127L163.478 40.0096ZM164.883 39.188C165.849 38.7718 166.752 38.344 167.583 37.9023L162.889 29.0722C162.342 29.3632 161.69 29.6748 160.925 30.0045L164.883 39.188ZM167.54 37.9245C168.634 37.3566 169.689 36.6223 170.592 35.6655L163.32 28.8009C163.333 28.7876 163.241 28.8893 162.932 29.0499L167.54 37.9245ZM170.538 35.7221C171.734 34.4944 172.462 32.99 172.746 31.3752L162.897 29.6453C162.915 29.5403 162.958 29.3849 163.047 29.2067C163.138 29.0265 163.253 28.8692 163.375 28.7443L170.538 35.7221ZM172.746 31.3752C172.997 29.9462 172.9 28.4172 172.291 26.9347L163.04 30.7315C162.954 30.5218 162.903 30.3046 162.884 30.0976C162.865 29.8943 162.88 29.7382 162.897 29.6453L172.746 31.3752ZM172.291 26.9347C171.733 25.573 170.835 24.4314 169.687 23.5636L163.657 31.5412C163.55 31.46 163.427 31.3453 163.31 31.1942C163.192 31.0425 163.102 30.8831 163.04 30.7315L172.291 26.9347ZM169.687 23.5636C168.549 22.7037 167.268 22.1868 165.949 21.9552L164.219 31.8044C164.176 31.7968 164.093 31.7773 163.986 31.7318C163.877 31.6857 163.764 31.6218 163.657 31.5412L169.687 23.5636ZM165.949 21.9552C164.5 21.7006 163.021 21.7959 161.594 22.2751L164.777 31.7549C164.689 31.7845 164.585 31.8068 164.474 31.8147C164.363 31.8226 164.275 31.8143 164.219 31.8044L165.949 21.9552ZM161.55 22.2901C160.154 22.7734 158.934 23.5832 157.947 24.6632L165.328 31.4104C165.277 31.4658 165.202 31.5338 165.104 31.599C165.005 31.6643 164.906 31.7105 164.821 31.74L161.55 22.2901ZM157.892 24.7239C156.786 25.9741 156.159 27.4435 155.896 28.9407L165.745 30.6706C165.739 30.7026 165.719 30.7983 165.657 30.9323C165.593 31.0697 165.502 31.215 165.382 31.3497L157.892 24.7239ZM161.685 24.881L152.373 23.2455L150.644 33.0948L159.956 34.7303L161.685 24.881ZM156.425 29.0798C156.788 27.1201 157.418 26.1063 157.97 25.5653L150.966 18.428C148.557 20.7918 147.215 23.8937 146.592 27.2605L156.425 29.0798ZM157.982 25.5532C158.754 24.79 159.666 24.2936 160.847 24.0513L158.837 14.2553C155.817 14.875 153.145 16.2741 150.953 18.4401L157.982 25.5532ZM160.873 24.0458C162.285 23.7481 163.865 23.7179 165.659 24.0329L167.389 14.1837C164.478 13.6725 161.603 13.6722 158.811 14.2608L160.873 24.0458ZM165.659 24.0329C167.774 24.4044 169.434 25.017 170.731 25.7817L175.809 17.167C173.301 15.6885 170.463 14.7236 167.389 14.1837L165.659 24.0329ZM170.754 25.795C171.951 26.4921 172.642 27.2607 173.06 28.0589L181.919 23.4214C180.522 20.751 178.4 18.6757 175.787 17.1538L170.754 25.795ZM173.069 28.0759C173.367 28.6411 173.575 29.4783 173.329 30.8778L183.179 32.6076C183.733 29.448 183.432 26.2836 181.91 23.4044L173.069 28.0759ZM173.329 30.8778C173.172 31.7757 172.917 32.3194 172.689 32.6505L180.93 38.3145C182.113 36.5934 182.821 34.644 183.179 32.6076L173.329 30.8778ZM172.675 32.6709C172.358 33.1367 171.962 33.5319 171.448 33.8713L176.96 42.2153C178.538 41.1724 179.879 39.8603 180.944 38.294L172.675 32.6709ZM171.45 33.8703C170.776 34.3146 169.957 34.7307 168.963 35.0969L172.42 44.4805C174.045 43.8819 175.567 43.1344 176.958 42.2164L171.45 33.8703ZM168.957 35.0991C167.739 35.5496 166.575 36.0967 165.519 36.7723L170.907 45.1967C171.23 44.9897 171.719 44.7397 172.425 44.4783L168.957 35.0991ZM165.566 36.7424C164.31 37.5263 163.224 38.5499 162.382 39.8149L170.707 45.3552C170.714 45.3444 170.74 45.301 170.859 45.2265L165.566 36.7424ZM162.4 39.7877C161.484 41.1441 160.987 42.6534 160.73 44.1137L170.58 45.8436C170.664 45.364 170.759 45.2775 170.688 45.3824L162.4 39.7877ZM160.73 44.1137L160.577 44.9867L170.426 46.7166L170.58 45.8436L160.73 44.1137ZM166.367 40.9271L157.782 39.4193L156.052 49.2685L164.637 50.7763L166.367 40.9271ZM160.073 52.4208C160.009 52.4095 159.976 52.3981 159.967 52.3945C159.958 52.3912 159.962 52.3918 159.971 52.3977C159.98 52.4036 159.983 52.4066 159.976 52.4002C159.969 52.3933 159.944 52.3688 159.906 52.3162L151.789 58.1568C153.385 60.3752 155.652 61.7973 158.343 62.27L160.073 52.4208ZM159.942 52.3659C159.925 52.3426 159.915 52.3255 159.909 52.3147C159.903 52.304 159.9 52.2986 159.9 52.2986C159.9 52.2985 159.902 52.3023 159.904 52.3095C159.906 52.3167 159.909 52.3254 159.911 52.3349C159.915 52.3558 159.915 52.3678 159.915 52.3646C159.915 52.3604 159.916 52.329 159.927 52.2654L150.093 50.4514C149.591 53.1733 150.157 55.8293 151.754 58.1071L159.942 52.3659ZM159.942 52.1802C159.946 52.1563 159.95 52.141 159.952 52.1333C159.954 52.1256 159.955 52.1244 159.953 52.1286C159.951 52.1328 159.948 52.1408 159.943 52.1516C159.937 52.1624 159.931 52.1742 159.923 52.1861C159.916 52.198 159.908 52.2082 159.902 52.2164C159.895 52.2245 159.891 52.2291 159.89 52.23C159.889 52.231 159.893 52.2273 159.902 52.2194C159.911 52.2114 159.928 52.1987 159.952 52.182L154.261 43.9592C151.996 45.5265 150.534 47.8023 150.078 50.5367L159.942 52.1802ZM159.927 52.1992C159.98 52.1626 160.012 52.1479 160.021 52.1438C160.029 52.1401 160.026 52.1422 160.015 52.1445C160.005 52.1469 160.001 52.1463 160.01 52.1461C160.021 52.146 160.055 52.1465 160.119 52.1577L161.849 42.3085C159.158 41.8358 156.542 42.4004 154.286 43.9421L159.927 52.1992ZM160.119 52.1577C160.149 52.1629 160.155 52.1666 160.145 52.1626C160.134 52.1584 160.119 52.1513 160.107 52.1432C160.094 52.1353 160.096 52.1343 160.111 52.1489C160.127 52.1642 160.162 52.2011 160.213 52.2706L168.295 46.3814C166.738 44.2444 164.541 42.7813 161.849 42.3085L160.119 52.1577ZM160.23 52.2944C160.272 52.3509 160.287 52.3817 160.289 52.386C160.291 52.3885 160.289 52.386 160.287 52.379C160.284 52.3718 160.281 52.3618 160.278 52.3495C160.275 52.3372 160.273 52.3247 160.271 52.3128C160.269 52.3009 160.269 52.2917 160.269 52.286C160.268 52.2734 160.27 52.2847 160.263 52.3256L170.127 53.969C170.588 51.2062 169.912 48.5726 168.277 46.3576L160.23 52.2944ZM160.282 52.2193C160.276 52.2491 160.271 52.2659 160.269 52.2719C160.267 52.2778 160.267 52.2767 160.27 52.2708C160.273 52.2649 160.277 52.2588 160.28 52.2539C160.283 52.249 160.284 52.2495 160.278 52.2554L167.714 58.9425C168.968 57.5475 169.766 55.8866 170.108 54.0753L160.282 52.2193ZM160.264 52.2714C160.181 52.3645 160.115 52.408 160.015 52.4464L163.621 61.7737C165.211 61.159 166.597 60.195 167.728 58.9265L160.264 52.2714ZM160.07 52.4256C160.06 52.4293 160.058 52.4294 160.063 52.4283C160.068 52.4271 160.076 52.4257 160.085 52.4249C160.089 52.4246 160.093 52.4244 160.095 52.4243C160.097 52.4243 160.098 52.4243 160.099 52.4243C160.099 52.4243 160.1 52.4243 160.1 52.4243C160.1 52.4243 160.099 52.4243 160.098 52.4242C160.097 52.4241 160.096 52.424 160.094 52.4238C160.089 52.4233 160.083 52.4224 160.073 52.4208L158.343 62.27C160.106 62.5795 161.878 62.4244 163.566 61.7945L160.07 52.4256Z" fill="black"/>
</svg>
