<svg width="177" height="157" viewBox="0 0 177 157" fill="none" xmlns="http://www.w3.org/2000/svg">
<path d="M41.7921 74.2188L38.0307 65.8281L37.59 63.889C36.6122 59.5866 36.5766 55.1237 37.4855 50.8063L37.6154 50.1891C38.64 45.3222 41.0581 40.8584 44.5749 37.3415L46.4044 35.4289C50.7755 30.8591 56.1123 27.3237 62.025 25.0809C63.4777 24.5299 64.9719 24.095 66.4934 23.7802L75.3712 21.9434C83.7194 21.1844 92.1283 22.4293 99.8986 25.5744L100.731 25.9113C103.066 26.8565 105.299 28.0368 107.395 29.4342L110.252 31.3392C114.658 34.2766 118.348 38.167 121.047 42.7227C122.411 45.0246 123.419 47.5198 124.036 50.1235L124.298 51.2311C125.771 57.4506 125.143 63.9828 122.513 69.8079L122.283 70.3164C121.551 71.9372 120.618 73.4598 119.508 74.8485L117.624 77.2027C114.885 80.6261 111.544 83.5205 107.766 85.7433L106.937 86.2306L101.647 89.0149C100.634 89.5481 100.415 90.9036 101.208 91.7287L105.204 95.884C107.878 98.6655 110.042 101.896 111.596 105.428C112.844 108.263 113.59 111.293 113.804 114.383L113.859 115.182C114.117 118.927 113.504 122.682 112.069 126.151L111.577 127.34C110.288 130.454 108.515 133.344 106.322 135.902C103.921 138.703 101.138 141.151 98.0539 143.175L93.6997 146.032C91.4965 147.478 89.1373 148.671 86.6669 149.589C80.1977 151.992 73.412 153.436 66.5249 153.875L65.6758 153.93C61.1106 154.221 56.5299 154.165 51.9732 153.763L50.813 153.661C47.4349 153.363 44.1011 152.686 40.8746 151.642L32.6414 148.978L29.386 147.436C21.9301 143.904 15.5103 138.51 10.7462 131.775L10.0944 130.853C7.94661 127.817 6.32761 124.439 5.30582 120.863L4.68143 118.677C3.57055 114.789 3.20665 110.726 3.60902 106.702L4.15486 101.244L4.61225 96.8986C4.81899 94.9345 4.6797 92.9494 4.20072 91.0335C3.40836 87.864 3.2626 84.5675 3.77213 81.3405L4.15486 78.9165C4.57295 75.7807 7.53968 73.6402 10.6473 74.2322L13.0088 74.682L14.0763 75.0022C18.4061 76.3012 22.2718 78.8163 25.2136 82.2485C25.2817 82.3279 25.3925 82.3555 25.4899 82.3174L28.5733 81.1109C32.306 79.6502 36.1489 78.4887 40.0657 77.6372C41.5961 77.3045 42.4327 75.648 41.7921 74.2188Z" fill="#C3C2BC" stroke="black" stroke-width="5"/>
<path d="M131 73.7904C131 74.546 130.417 75.7792 126.995 76.8653C123.783 77.8844 119.108 78.3791 113.598 78.3791C109.476 78.3791 106.822 78.2078 105.069 77.7279C104.139 77.4734 103.77 77.0318 103.574 76.5549C103.331 75.961 103.256 75.0114 103.558 73.7348C104.171 71.1504 106.087 68.2752 108.352 66.7428C110.195 65.4957 111.957 64.7095 113.437 64.3254C114.969 63.9277 115.97 64.0162 116.454 64.1977C121.074 65.93 124.874 67.5541 127.5 69.2936C130.177 71.0671 131 72.5308 131 73.7904Z" fill="#7F7A74" stroke="black" stroke-width="5"/>
<path d="M26.3493 100.858V100.858C26.3493 109.954 30.849 118.55 38.3679 123.669V123.669C42.3475 126.379 46.969 127.996 51.7698 128.358L53.4114 128.482C60.8243 129.041 68.2138 127.13 74.4259 123.047L74.8004 122.801" stroke="black" stroke-width="5" stroke-linecap="round"/>
<ellipse cx="82.3004" cy="61.9769" rx="6.54421" ry="6.5442" fill="black"/>
<mask id="path-5-inside-1_8_19" fill="white">
<path d="M93.8027 24.8239C92.4212 18.24 88.6355 12.4422 83.2784 8.70585C77.9213 4.96949 71.4316 3.60066 65.237 4.90048C59.0424 6.2003 53.6504 10.0623 50.247 15.6369C46.8437 21.2115 45.7078 28.042 47.0893 34.6258L70.446 29.7248L93.8027 24.8239Z"/>
</mask>
<path d="M93.8027 24.8239C92.4212 18.24 88.6355 12.4422 83.2784 8.70585C77.9213 4.96949 71.4316 3.60066 65.237 4.90048C59.0424 6.2003 53.6504 10.0623 50.247 15.6369C46.8437 21.2115 45.7078 28.042 47.0893 34.6258L70.446 29.7248L93.8027 24.8239Z" fill="#58595D" stroke="black" stroke-width="10" mask="url(#path-5-inside-1_8_19)"/>
<path d="M105.528 18.1503L93.3075 21.7737C92.2746 22.08 92.3897 23.5784 93.4572 23.7233L107.515 25.6323L116.047 25.9293C119.127 26.0365 121.612 23.4346 121.363 20.363C121.106 17.1893 118.061 15.0059 114.972 15.7807L105.528 18.1503Z" fill="#58595D" stroke="black" stroke-width="5"/>
<path d="M160.523 52.0016L152.013 50.8871C152.129 49.0926 152.424 47.6204 152.899 46.4706C153.376 45.3039 153.935 44.3613 154.575 43.6428C155.235 42.9097 155.932 42.3438 156.667 41.945C157.421 41.5316 158.14 41.1905 158.824 40.9215C159.527 40.638 160.144 40.3603 160.674 40.0884C161.222 39.8187 161.621 39.4441 161.872 38.9648C162.029 38.6781 162.107 38.3384 162.107 37.9458C162.11 37.5364 161.983 37.1357 161.727 36.7436C161.488 36.3538 161.09 36.0029 160.533 35.691C159.996 35.3645 159.265 35.1408 158.342 35.0199C157.738 34.9408 157.009 34.905 156.154 34.9126C155.318 34.9056 154.432 34.9602 153.495 35.0765C152.56 35.176 151.626 35.3353 150.692 35.5545C149.778 35.759 148.941 36.025 148.181 36.3522L148.366 26.3383C149.035 26.0504 149.781 25.764 150.604 25.4791C151.445 25.1796 152.356 24.9403 153.335 24.7613C154.317 24.5655 155.375 24.4395 156.509 24.3832C157.643 24.3269 158.848 24.3822 160.123 24.5493C162.188 24.8197 164.097 25.36 165.852 26.1702C167.623 26.9827 169.125 28.0329 170.356 29.3209C171.587 30.6089 172.499 32.1196 173.091 33.8532C173.686 35.5699 173.846 37.4773 173.571 39.5753C173.362 41.1697 172.967 42.424 172.387 43.3381C171.808 44.2354 171.126 44.9484 170.34 45.4771C169.553 46.0058 168.696 46.4227 167.769 46.728C166.841 47.0333 165.925 47.3828 165.02 47.7764C164.133 48.1554 163.291 48.6596 162.491 49.2889C161.708 49.9205 161.052 50.8247 160.523 52.0016ZM160.911 58.8128C160.814 59.5513 160.581 60.2207 160.212 60.8212C159.844 61.4216 159.385 61.9249 158.837 62.3311C158.303 62.7562 157.7 63.0613 157.027 63.2463C156.352 63.4481 155.653 63.5018 154.932 63.4072C154.193 63.3105 153.524 63.0777 152.923 62.7089C152.321 62.3568 151.808 61.9055 151.385 61.355C150.976 60.8235 150.671 60.2202 150.47 59.5451C150.285 58.8721 150.24 58.1664 150.337 57.4279C150.432 56.7062 150.656 56.0357 151.01 55.4163C151.381 54.7991 151.833 54.2863 152.364 53.8779C152.915 53.4549 153.527 53.1425 154.203 52.9407C154.878 52.7389 155.585 52.6864 156.323 52.7831C157.045 52.8777 157.706 53.1093 158.306 53.4782C158.907 53.8471 159.41 54.3056 159.816 54.8539C160.241 55.3876 160.554 56.0004 160.753 56.6924C160.953 57.3843 161.005 58.0911 160.911 58.8128Z" fill="black"/>
</svg>
